Coordinates
version=1
nRows=6
nColumns=36
inDegrees=yes

Units are S.I. units (second, meters, Newtons, ...)
If the header above contains a line with 'inDegrees', this indicates whether rotational values are in degrees (yes) or radians (no).

endheader
time	pelvis_tilt	pelvis_list	pelvis_rotation	pelvis_tx	pelvis_ty	pelvis_tz	hip_flexion_r	hip_adduction_r	hip_rotation_r	knee_angle_r	knee_angle_r_beta	ankle_angle_r	subtalar_angle_r	mtp_angle_r	hip_flexion_l	hip_adduction_l	hip_rotation_l	knee_angle_l	knee_angle_l_beta	ankle_angle_l	subtalar_angle_l	mtp_angle_l	lumbar_extension	lumbar_bending	lumbar_rotation	arm_flex_r	arm_add_r	arm_rot_r	elbow_flex_r	pro_sup_r	arm_flex_l	arm_add_l	arm_rot_l	elbow_flex_l	pro_sup_l
      1.74000000	    -21.85688276	     -2.41107206	      3.35073292	     -0.26668189	      0.75152600	     -0.61059512	     80.63783218	     -5.69935049	     -2.69213027	     94.17158992	      1.64360431	     24.34970367	    -13.76101331	     -7.38547289	     81.70403795	     -4.65423915	      1.71984899	     95.68473129	      1.67001360	     22.28788309	     -5.56782123	     -7.38547289	    -32.98973970	      1.49620299	      1.46187739	     74.32823325	    -24.40387236	     17.72759893	     89.90608181	    115.37475965	     84.33301604	    -17.07166661	     23.15178634	     84.61252685	    111.31126629
      1.75000000	    -21.58293698	     -2.36442066	      2.88525850	     -0.26227348	      0.76139363	     -0.61082801	     79.33985855	     -5.25484394	     -2.63905371	     92.86725936	      1.62083944	     23.37739397	    -13.76191091	     -7.38770655	     80.35392683	     -4.53333580	      1.97824505	     94.63260944	      1.65165061	     21.22856296	     -6.24960444	     -7.38770655	    -31.38213832	      1.27974344	      1.70365719	     81.26603326	    -25.61672640	     21.74446142	     92.75724067	    115.43074180	     90.46684278	    -16.94678729	     25.96820480	     86.76184002	    111.55886847
      1.76000000	    -21.47758191	     -2.36196287	      2.38014713	     -0.25762461	      0.77216805	     -0.61096971	     78.07670473	     -4.77811188	     -2.63285716	     91.31640791	      1.59377198	     22.14503819	    -13.91044293	     -7.39005072	     79.07543659	     -4.49335583	      2.20936110	     93.37591109	      1.62971709	     19.80665372	     -7.17535455	     -7.39005072	    -29.64605616	      1.12903284	      2.00317358	     88.71708118	    -26.64204628	     25.84438681	     95.06904766	    115.39865441	     96.76657428	    -16.87303823	     28.68780270	     88.83186558	    111.74218851
      1.77000000	    -21.52133768	     -2.34033635	      1.96665549	     -0.25267873	      0.78407430	     -0.61151013	     76.79313226	     -4.50543061	     -2.69552574	     89.50062372	      1.56208057	     20.61819205	    -14.14046051	     -7.39356181	     77.80848916	     -4.31523244	      2.39561603	     91.83987962	      1.60290828	     17.93798347	     -8.48352323	     -7.39356181	    -27.81566202	      1.09804436	      2.27501762	     96.66619008	    -27.40085622	     30.11375202	     96.70171479	    115.19725895	    103.16234958	    -16.84419114	     31.26632830	     90.80050704	    111.80417563
      1.78000000	    -21.82196386	     -2.16228807	      1.48619498	     -0.24731228	      0.79688205	     -0.61185051	     75.67737575	     -4.27803312	     -2.64144042	     87.50815423	      1.52730541	     19.29647547	    -13.67182359	     -7.39487566	     76.61573676	     -4.21945305	      2.35794245	     90.07503866	      1.57210600	     16.52892332	     -8.70852719	     -7.39487566	    -25.75069772	      0.80799638	      2.55155326	    104.48576467	    -27.80598473	     33.91070431	     97.83589039	    115.14314933	    109.89309415	    -16.78724310	     34.04520003	     92.26964215	    111.93449912
      1.79000000	    -21.84389330	     -2.18002102	      1.03690932	     -0.24176289	      0.81209819	     -0.61253528	     73.94146292	     -4.05701462	     -2.96441003	     84.96218226	      1.48286982	     17.22655839	    -14.53984785	     -7.40992547	     74.96400310	     -4.12960153	      2.44788126	     87.90107899	      1.53416324	     13.91997371	    -10.86180215	     -7.40992547	    -24.10508786	      1.02883297	      3.05397773	    113.25585164	    -27.63916435	     38.88137218	     97.24818760	    114.32216190	    116.32633895	    -16.64875849	     35.93282354	     93.13173163	    110.28540950
